<?xml version="1.0" standalone="no"?>
<!DOCTYPE svg PUBLIC "-//W3C//DTD SVG 20010904//EN"
 "http://www.w3.org/TR/2001/REC-SVG-20010904/DTD/svg10.dtd">
<svg version="1.0" xmlns="http://www.w3.org/2000/svg"
 width="1250.000000pt" height="938.000000pt" viewBox="0 0 1250.000000 938.000000"
 preserveAspectRatio="xMidYMid meet">

<g transform="translate(0.000000,938.000000) scale(0.100000,-0.100000)"
fill="#000000" stroke="none">
<path d="M8017 5806 c-59 -25 -88 -45 -118 -80 -17 -19 -17 -19 -80 1 -225 74
-488 73 -708 -2 -205 -69 -400 -210 -532 -384 -67 -89 -153 -265 -185 -381
-37 -136 -45 -373 -16 -510 108 -515 523 -873 1038 -897 524 -25 989 320 1124
833 73 279 30 596 -114 842 l-35 59 32 59 c30 55 32 66 32 154 0 79 -4 103
-24 142 -76 155 -262 228 -414 164z m-438 -176 c41 -6 109 -19 153 -31 l78
-21 0 -69 c0 -179 127 -320 300 -335 44 -4 81 -1 113 9 l48 15 26 -40 c99
-158 151 -411 124 -612 -30 -224 -123 -410 -285 -571 -135 -135 -299 -221
-497 -261 -161 -32 -383 -9 -544 58 -391 164 -635 583 -585 1004 28 236 128
436 299 596 82 78 132 114 226 160 179 90 359 122 544 98z"/>
<path d="M7316 5235 c-191 -54 -350 -210 -408 -400 -33 -105 -30 -244 6 -350
69 -201 228 -345 432 -390 309 -69 622 137 689 452 61 285 -102 573 -381 675
-75 27 -262 35 -338 13z"/>
<path d="M2241 5278 c-5 -13 -108 -297 -229 -633 -121 -335 -225 -623 -231
-638 l-11 -28 118 3 117 3 60 172 60 173 250 0 250 0 60 -175 60 -175 118 0
c64 0 117 4 117 9 0 7 -435 1218 -461 1284 l-11 27 -129 0 c-125 0 -130 -1
-138 -22z m223 -496 c47 -134 86 -245 86 -248 0 -2 -79 -4 -175 -4 -96 0 -175
2 -175 5 0 10 173 495 175 493 2 -2 42 -112 89 -246z"/>
<path d="M4280 5195 l0 -105 223 -2 222 -3 3 -552 2 -553 110 0 110 0 0 555 0
555 225 0 226 0 -3 103 -3 102 -557 3 -558 2 0 -105z"/>
<path d="M9547 5293 c-4 -3 -7 -300 -7 -660 l0 -653 110 0 110 0 2 484 3 484
144 -309 144 -309 71 0 71 0 145 310 145 309 3 -485 2 -484 115 0 115 0 -2
658 -3 657 -139 0 -140 0 -150 -327 c-83 -180 -153 -324 -157 -320 -3 4 -75
152 -159 330 l-153 322 -132 0 c-72 0 -135 -3 -138 -7z"/>
</g>
</svg>
